<?xml version="1.0" standalone="no"?>
<!DOCTYPE svg PUBLIC "-//W3C//DTD SVG 20010904//EN"
 "http://www.w3.org/TR/2001/REC-SVG-20010904/DTD/svg10.dtd">
<svg version="1.0" xmlns="http://www.w3.org/2000/svg"
 width="320.000000pt" height="320.000000pt" viewBox="0 0 320.000000 320.000000"
 preserveAspectRatio="xMidYMid meet">

<g transform="translate(0.000000,320.000000) scale(0.100000,-0.100000)"
fill="#000000" stroke="none">
<path d="M220 3131 c-50 -16 -87 -41 -124 -82 -46 -50 -70 -103 -87 -187 -29
-154 26 -281 225 -519 110 -130 142 -153 218 -153 53 0 61 3 125 51 247 187
388 369 423 543 20 101 -4 194 -70 270 -50 57 -103 80 -180 80 -68 0 -118 -19
-188 -72 l-32 -25 -38 26 c-86 60 -206 90 -272 68z"/>
<path d="M890 2384 c-120 -32 -211 -125 -246 -250 -15 -57 -15 -63 1 -97 10
-22 30 -42 53 -53 32 -15 41 -15 76 -3 30 11 44 23 58 54 46 97 55 110 85 128
43 25 133 25 176 0 23 -13 42 -40 69 -95 32 -66 41 -78 72 -88 49 -16 101 2
127 44 23 37 24 57 4 122 -56 191 -263 295 -475 238z"/>
<path d="M2059 2387 c-137 -39 -240 -154 -256 -287 -7 -60 12 -95 64 -117 66
-27 121 5 148 88 20 60 72 109 118 110 119 4 146 -11 195 -111 44 -90 72 -109
133 -91 21 6 48 24 60 39 18 23 20 36 16 84 -9 107 -91 214 -204 265 -67 31
-201 41 -274 20z"/>
<path d="M1094 1626 c-31 -31 -34 -39 -34 -92 0 -135 56 -270 150 -364 68 -67
135 -104 236 -130 253 -65 503 41 613 260 65 130 78 275 30 326 -43 45 -129
40 -162 -10 -8 -12 -18 -51 -22 -86 -13 -125 -68 -210 -167 -259 -53 -27 -72
-31 -143 -31 -103 0 -161 20 -224 76 -58 52 -88 115 -97 210 -6 60 -12 73 -40
102 -45 45 -93 45 -140 -2z"/>
<path d="M2340 1441 c-117 -38 -179 -127 -180 -258 0 -131 42 -206 284 -499
130 -157 171 -194 215 -194 83 0 419 373 506 561 56 125 40 249 -45 331 -38
36 -59 48 -102 57 -95 20 -218 -17 -276 -84 -17 -18 -32 -39 -34 -46 -3 -8
-23 3 -59 32 -96 78 -236 124 -309 100z"/>
<path d="M690 858 c-19 -7 -52 -30 -75 -53 l-40 -40 -77 4 c-139 6 -224 -32
-269 -121 -17 -34 -20 -55 -17 -122 6 -143 62 -225 239 -349 219 -152 252
-154 362 -19 149 185 209 339 186 486 -15 95 -58 159 -131 197 -46 23 -132 32
-178 17z"/>
</g>
</svg>
