<?xml version="1.0" encoding="UTF-8"?>
<!DOCTYPE svg PUBLIC "-//W3C//DTD SVG 1.1//EN" "http://www.w3.org/Graphics/SVG/1.1/DTD/svg11.dtd">
<svg xmlns="http://www.w3.org/2000/svg" version="1.1" width="320px" height="320px" style="shape-rendering:geometricPrecision; text-rendering:geometricPrecision; image-rendering:optimizeQuality; fill-rule:evenodd; clip-rule:evenodd" xmlns:xlink="http://www.w3.org/1999/xlink">
<g><path style="opacity:0.942" fill="#b4acbb" d="M 20.5,48.5 C 113.167,48.3333 205.834,48.5 298.5,49C 306.739,51.573 311.905,57.073 314,65.5C 314.667,128.167 314.667,190.833 314,253.5C 311.567,261.598 306.401,267.098 298.5,270C 205.833,270.667 113.167,270.667 20.5,270C 10.313,266.47 4.81296,259.304 4,248.5C 3.33333,189.167 3.33333,129.833 4,70.5C 4.92743,59.6113 10.4274,52.2779 20.5,48.5 Z"/></g>
<g><path style="opacity:1" fill="#e0d6ea" d="M 243.5,109.5 C 231.174,85.5385 211.841,77.3719 185.5,85C 177.684,88.49 170.684,93.1566 164.5,99C 161.634,100.457 158.634,100.79 155.5,100C 139.408,83.9695 120.408,78.9695 98.5,85C 87.499,90.1637 79.8323,98.3304 75.5,109.5C 55.6891,96.4242 36.0224,83.0908 16.5,69.5C 17.93,66.5673 19.93,64.0673 22.5,62C 67.9177,60.838 113.418,60.338 159,60.5C 203.833,60.6667 248.667,60.8333 293.5,61C 297.33,62.3323 299.997,64.8323 301.5,68.5C 301.471,70.0293 300.804,71.196 299.5,72C 280.632,84.2622 261.966,96.7622 243.5,109.5 Z"/></g>
<g><path style="opacity:1" fill="#c7bfd0" d="M 17.5,83.5 C 16.1667,134.167 16.1667,184.833 17.5,235.5C 17.44,236.043 17.1067,236.376 16.5,236.5C 15.1667,185.167 15.1667,133.833 16.5,82.5C 17.1067,82.6236 17.44,82.9569 17.5,83.5 Z"/></g>
<g><path style="opacity:1" fill="#f72e5f" d="M 243.5,109.5 C 244.629,113.152 245.629,116.818 246.5,120.5C 249.773,139.191 246.273,156.525 236,172.5C 232.586,177.066 229.42,181.732 226.5,186.5C 223.119,188.88 220.453,191.88 218.5,195.5C 203.315,211.521 185.982,224.688 166.5,235C 161.5,237 156.5,237 151.5,235C 132.301,224.727 115.301,211.56 100.5,195.5C 98.5281,191.895 95.8615,188.895 92.5,186.5C 83.9276,175.359 77.4276,163.026 73,149.5C 71.2249,139.848 71.0583,130.182 72.5,120.5C 73.371,116.818 74.371,113.152 75.5,109.5C 79.8323,98.3304 87.499,90.1637 98.5,85C 120.408,78.9695 139.408,83.9695 155.5,100C 158.634,100.79 161.634,100.457 164.5,99C 170.684,93.1566 177.684,88.49 185.5,85C 211.841,77.3719 231.174,85.5385 243.5,109.5 Z"/></g>
<g><path style="opacity:1" fill="#dfd6ea" d="M 17.5,83.5 C 35.6608,96.0811 53.9941,108.414 72.5,120.5C 71.0583,130.182 71.2249,139.848 73,149.5C 77.4276,163.026 83.9276,175.359 92.5,186.5C 90.0869,188.887 87.4202,191.054 84.5,193C 61.7641,206.692 39.4307,220.858 17.5,235.5C 16.1667,184.833 16.1667,134.167 17.5,83.5 Z"/></g>
<g><path style="opacity:1" fill="#dfd6ea" d="M 226.5,186.5 C 229.42,181.732 232.586,177.066 236,172.5C 246.273,156.525 249.773,139.191 246.5,120.5C 264.632,107.929 282.965,95.5957 301.5,83.5C 302.833,134.167 302.833,184.833 301.5,235.5C 277.669,220.083 253.669,204.917 229.5,190C 227.937,189.241 226.937,188.074 226.5,186.5 Z"/></g>
<g><path style="opacity:1" fill="#dfd6ea" d="M 100.5,195.5 C 115.301,211.56 132.301,224.727 151.5,235C 156.5,237 161.5,237 166.5,235C 185.982,224.688 203.315,211.521 218.5,195.5C 246.774,213.113 274.774,231.113 302.5,249.5C 300.812,253.188 298.145,255.855 294.5,257.5C 205.208,258.495 115.874,258.828 26.5,258.5C 21.9373,256.941 18.6039,253.941 16.5,249.5C 44.1521,231.004 72.1521,213.004 100.5,195.5 Z"/></g>
<g><path style="opacity:1" fill="#c4bbcc" d="M 294.5,257.5 C 294.389,258.117 294.056,258.617 293.5,259C 204.332,259.832 115.332,259.666 26.5,258.5C 115.874,258.828 205.208,258.495 294.5,257.5 Z"/></g>
</svg>
