<?xml version="1.0" standalone="no"?>
<!DOCTYPE svg PUBLIC "-//W3C//DTD SVG 20010904//EN"
 "http://www.w3.org/TR/2001/REC-SVG-20010904/DTD/svg10.dtd">
<svg version="1.0" xmlns="http://www.w3.org/2000/svg"
 width="320.000000pt" height="320.000000pt" viewBox="0 0 320.000000 320.000000"
 preserveAspectRatio="xMidYMid meet">

<g transform="translate(0.000000,320.000000) scale(0.100000,-0.100000)"
fill="#000000" stroke="none">
<path d="M876 3074 c-158 -38 -296 -153 -370 -307 -134 -276 -92 -558 132
-898 92 -140 192 -257 358 -420 159 -155 260 -241 428 -363 167 -122 168 -122
214 -94 320 195 741 596 929 885 70 107 146 267 175 368 33 115 33 299 0 405
-70 223 -224 378 -423 425 -83 19 -239 19 -314 0 -135 -36 -262 -132 -383
-290 l-22 -30 -27 35 c-15 19 -65 73 -112 120 -137 136 -244 181 -426 179 -55
0 -126 -7 -159 -15z"/>
<path d="M1520 737 c-91 -25 -173 -97 -213 -186 -31 -66 -30 -177 2 -248 28
-62 103 -136 169 -165 72 -33 182 -30 255 5 65 32 130 100 160 165 32 72 30
180 -6 253 -31 65 -100 132 -160 159 -57 25 -151 33 -207 17z"/>
</g>
</svg>
