<?xml version="1.0" encoding="UTF-8"?>
<!DOCTYPE svg PUBLIC "-//W3C//DTD SVG 1.1//EN" "http://www.w3.org/Graphics/SVG/1.1/DTD/svg11.dtd">
<svg xmlns="http://www.w3.org/2000/svg" version="1.1" width="320px" height="320px" style="shape-rendering:geometricPrecision; text-rendering:geometricPrecision; image-rendering:optimizeQuality; fill-rule:evenodd; clip-rule:evenodd" xmlns:xlink="http://www.w3.org/1999/xlink">
<g><path style="opacity:0.981" fill="#f82f5f" d="M 97.5,8.5 C 114.026,7.18965 128.693,11.6897 141.5,22C 148.08,28.0755 154.08,34.5755 159.5,41.5C 169.081,27.412 181.748,17.2454 197.5,11C 235.525,3.42157 261.358,17.5882 275,53.5C 279.599,72.7457 277.932,91.4124 270,109.5C 261.395,128.393 250.062,145.393 236,160.5C 213.508,184.343 188.674,205.176 161.5,223C 158.581,223.552 155.914,222.885 153.5,221C 116.794,196.628 85.6271,166.462 60,130.5C 45.8326,109.997 39.8326,87.3307 42,62.5C 47.6361,31.0277 66.1361,13.0277 97.5,8.5 Z"/></g>
<g><path style="opacity:0.942" fill="#f82f5f" d="M 153.5,243.5 C 173.596,242.288 186.429,251.288 192,270.5C 194.034,288.785 186.534,301.285 169.5,308C 148.052,312.362 133.885,304.195 127,283.5C 125.11,262.923 133.943,249.59 153.5,243.5 Z"/></g>
</svg>
