<?xml version="1.0" encoding="UTF-8"?>
<!DOCTYPE svg PUBLIC "-//W3C//DTD SVG 1.1//EN" "http://www.w3.org/Graphics/SVG/1.1/DTD/svg11.dtd">
<svg xmlns="http://www.w3.org/2000/svg" version="1.1" width="320px" height="320px" style="shape-rendering:geometricPrecision; text-rendering:geometricPrecision; image-rendering:optimizeQuality; fill-rule:evenodd; clip-rule:evenodd" xmlns:xlink="http://www.w3.org/1999/xlink">
<g><path style="opacity:0.975" fill="#f70a8c" d="M 99.5,24.5 C 101.286,39.9832 97.4529,53.9832 88,66.5C 76.8002,79.6619 63.9668,90.8286 49.5,100C 45.8333,100.667 42.1667,100.667 38.5,100C 33.7135,97.0453 29.3801,93.5453 25.5,89.5C 14.3387,78.5011 5.67202,65.8344 -0.5,51.5C -0.5,44.1667 -0.5,36.8333 -0.5,29.5C 2.68292,19.1474 9.01625,11.3141 18.5,6C 31.3218,2.93049 42.6551,5.76383 52.5,14.5C 66.1594,1.72091 79.9927,1.38757 94,13.5C 96.5335,16.8526 98.3668,20.5193 99.5,24.5 Z"/></g>
<g><path style="opacity:0.988" fill="#feae2d" d="M 307.5,176.5 C 296.995,173.043 286.995,174.21 277.5,180C 274.269,182.727 271.603,185.894 269.5,189.5C 259.579,179.369 247.579,174.535 233.5,175C 218.484,181.719 212.651,193.219 216,209.5C 217.109,213.719 218.775,217.719 221,221.5C 231.285,235.453 241.952,249.12 253,262.5C 255.537,265.372 258.37,267.872 261.5,270C 264.146,270.497 266.813,270.664 269.5,270.5C 246.154,294.139 217.821,307.972 184.5,312C 158.498,315.136 132.831,313.469 107.5,307C 100.211,304.632 93.211,301.799 86.5,298.5C 88.6265,292.852 91.4598,287.518 95,282.5C 100.497,269.579 100.831,256.579 96,243.5C 87.044,232.735 76.2107,230.235 63.5,236C 60.758,237.886 59.0913,240.386 58.5,243.5C 48.2784,241.66 38.2784,242.327 28.5,245.5C 11.1824,211.124 5.34911,174.79 11,136.5C 13.2122,119.974 18.0456,104.307 25.5,89.5C 29.3801,93.5453 33.7135,97.0453 38.5,100C 42.1667,100.667 45.8333,100.667 49.5,100C 63.9668,90.8286 76.8002,79.6619 88,66.5C 97.4529,53.9832 101.286,39.9832 99.5,24.5C 127.857,15.5243 156.857,13.0243 186.5,17C 259.205,30.3743 299.372,73.8743 307,147.5C 307.5,157.161 307.666,166.828 307.5,176.5 Z"/></g>
<g><path style="opacity:1" fill="#7a5230" d="M 222.5,80.5 C 216.464,80.3599 210.464,80.6932 204.5,81.5C 207.695,79.9704 211.195,79.3037 215,79.5C 217.69,79.5029 220.19,79.8362 222.5,80.5 Z"/></g>
<g><path style="opacity:1" fill="#7d5430" d="M 106.5,80.5 C 99.0455,80.1518 91.7121,80.8185 84.5,82.5C 86.2774,81.3995 88.2774,80.5662 90.5,80C 96.0164,79.1826 101.35,79.3493 106.5,80.5 Z"/></g>
<g><path style="opacity:1" fill="#422b31" d="M 106.5,80.5 C 126.052,83.5466 136.219,94.88 137,114.5C 133.716,120.887 128.549,123.053 121.5,121C 118.072,117.084 115.572,112.584 114,107.5C 110.383,102.68 105.55,100.68 99.5,101.5C 93.7251,100.638 89.2251,102.638 86,107.5C 84.8066,112.767 82.3066,117.267 78.5,121C 70.7968,123.564 65.6301,121.064 63,113.5C 63.7399,98.6804 70.9066,88.3471 84.5,82.5C 91.7121,80.8185 99.0455,80.1518 106.5,80.5 Z"/></g>
<g><path style="opacity:1" fill="#422b31" d="M 222.5,80.5 C 242.568,83.7247 252.735,95.3913 253,115.5C 250.929,119.953 247.429,121.953 242.5,121.5C 239.989,121.712 237.822,121.045 236,119.5C 233.917,113.916 231.084,108.749 227.5,104C 220.116,99.3448 212.783,99.3448 205.5,104C 202.316,109.205 199.316,114.539 196.5,120C 186.933,124.052 181.266,121.052 179.5,111C 181.55,95.7874 189.883,85.954 204.5,81.5C 210.464,80.6932 216.464,80.3599 222.5,80.5 Z"/></g>
<g><path style="opacity:1" fill="#422b31" d="M 112.5,153.5 C 123.982,153.837 128.816,159.837 127,171.5C 132.308,189.746 144.475,197.912 163.5,196C 182.409,191.406 191.576,179.239 191,159.5C 196.946,151.898 203.28,151.565 210,158.5C 212.904,183.524 203.071,201.69 180.5,213C 159.007,221.351 139.341,218.351 121.5,204C 109.408,191.061 104.575,175.894 107,158.5C 108.73,156.598 110.563,154.931 112.5,153.5 Z"/></g>
<g><path style="opacity:0.985" fill="#f70c8c" d="M 307.5,176.5 C 313.341,179.668 317.341,184.335 319.5,190.5C 319.5,196.833 319.5,203.167 319.5,209.5C 314.845,220.345 308.679,230.345 301,239.5C 291.574,251.094 281.074,261.428 269.5,270.5C 266.813,270.664 264.146,270.497 261.5,270C 258.37,267.872 255.537,265.372 253,262.5C 241.952,249.12 231.285,235.453 221,221.5C 218.775,217.719 217.109,213.719 216,209.5C 212.651,193.219 218.484,181.719 233.5,175C 247.579,174.535 259.579,179.369 269.5,189.5C 271.603,185.894 274.269,182.727 277.5,180C 286.995,174.21 296.995,173.043 307.5,176.5 Z"/></g>
<g><path style="opacity:0.975" fill="#f70b8c" d="M 86.5,298.5 C 83.089,302.948 79.4223,307.281 75.5,311.5C 69.6526,315.31 63.6526,315.477 57.5,312C 50.1667,307 42.8333,302 35.5,297C 25.3623,288.725 19.6956,278.059 18.5,265C 18.8422,256.812 22.1755,250.312 28.5,245.5C 38.2784,242.327 48.2784,241.66 58.5,243.5C 59.0913,240.386 60.758,237.886 63.5,236C 76.2107,230.235 87.044,232.735 96,243.5C 100.831,256.579 100.497,269.579 95,282.5C 91.4598,287.518 88.6265,292.852 86.5,298.5 Z"/></g>
</svg>
